<svg width="40" height="40" viewBox="0 0 40 40" fill="none" xmlns="http://www.w3.org/2000/svg">
<rect width="40" height="40" rx="5" fill="#4C4CFF"/>
<g clip-path="url(#clip0_1439_4572)">
<path d="M28.75 11.8728L23.7456 11.8728V10.6272C23.7456 10.2819 23.4659 10.0022 23.1206 10.0022C22.7753 10.0022 22.4956 10.2819 22.4956 10.6272V11.8725H17.4956V10.6272C17.4956 10.2819 17.2159 10.0022 16.8706 10.0022C16.5253 10.0022 16.2456 10.2819 16.2456 10.6272V11.8725H11.25C10.5597 11.8725 10 12.4322 10 13.1225V28.7475C10 29.4378 10.5597 29.9975 11.25 29.9975H28.75C29.4403 29.9975 30 29.4378 30 28.7475V13.1225C30 12.4325 29.4403 11.8728 28.75 11.8728ZM28.75 28.7475H11.25V13.1225H16.2456V13.7522C16.2456 14.0975 16.5253 14.3772 16.8706 14.3772C17.2159 14.3772 17.4956 14.0975 17.4956 13.7522V13.1228H22.4956V13.7525C22.4956 14.0978 22.7753 14.3775 23.1206 14.3775C23.4659 14.3775 23.7456 14.0978 23.7456 13.7525V13.1228H28.75V28.7475ZM24.375 19.9978H25.625C25.97 19.9978 26.25 19.7178 26.25 19.3728V18.1228C26.25 17.7778 25.97 17.4978 25.625 17.4978H24.375C24.03 17.4978 23.75 17.7778 23.75 18.1228V19.3728C23.75 19.7178 24.03 19.9978 24.375 19.9978ZM24.375 24.9975H25.625C25.97 24.9975 26.25 24.7178 26.25 24.3725V23.1225C26.25 22.7775 25.97 22.4975 25.625 22.4975H24.375C24.03 22.4975 23.75 22.7775 23.75 23.1225V24.3725C23.75 24.7181 24.03 24.9975 24.375 24.9975ZM20.625 22.4975H19.375C19.03 22.4975 18.75 22.7775 18.75 23.1225V24.3725C18.75 24.7178 19.03 24.9975 19.375 24.9975H20.625C20.97 24.9975 21.25 24.7178 21.25 24.3725V23.1225C21.25 22.7778 20.97 22.4975 20.625 22.4975ZM20.625 17.4978H19.375C19.03 17.4978 18.75 17.7778 18.75 18.1228V19.3728C18.75 19.7178 19.03 19.9978 19.375 19.9978H20.625C20.97 19.9978 21.25 19.7178 21.25 19.3728V18.1228C21.25 17.7775 20.97 17.4978 20.625 17.4978ZM15.625 17.4978H14.375C14.03 17.4978 13.75 17.7778 13.75 18.1228V19.3728C13.75 19.7178 14.03 19.9978 14.375 19.9978H15.625C15.97 19.9978 16.25 19.7178 16.25 19.3728V18.1228C16.25 17.7775 15.97 17.4978 15.625 17.4978ZM15.625 22.4975H14.375C14.03 22.4975 13.75 22.7775 13.75 23.1225V24.3725C13.75 24.7178 14.03 24.9975 14.375 24.9975H15.625C15.97 24.9975 16.25 24.7178 16.25 24.3725V23.1225C16.25 22.7778 15.97 22.4975 15.625 22.4975Z" fill="#FBFBFD"/>
</g>
<defs>
<clipPath id="clip0_1439_4572">
<rect width="20" height="20" fill="white" transform="translate(10 10)"/>
</clipPath>
</defs>
</svg>
