<svg width="16" height="16" viewBox="0 0 16 16" fill="none" xmlns="http://www.w3.org/2000/svg">
<path d="M12.7047 4.70615C13.0953 4.31553 13.0953 3.68115 12.7047 3.29053C12.3141 2.8999 11.6797 2.8999 11.2891 3.29053L7.99844 6.58428L4.70469 3.29365C4.31406 2.90303 3.67969 2.90303 3.28906 3.29365C2.89844 3.68428 2.89844 4.31865 3.28906 4.70928L6.58281 7.9999L3.29219 11.2937C2.90156 11.6843 2.90156 12.3187 3.29219 12.7093C3.68281 13.0999 4.31719 13.0999 4.70781 12.7093L7.99844 9.41553L11.2922 12.7062C11.6828 13.0968 12.3172 13.0968 12.7078 12.7062C13.0984 12.3155 13.0984 11.6812 12.7078 11.2905L9.41406 7.9999L12.7047 4.70615Z" fill="white"/>
</svg>
