<svg width="26" height="26" viewBox="0 0 26 26" fill="none" xmlns="http://www.w3.org/2000/svg">
<path d="M7 5.2497V20.4164C7 20.7037 7.11414 20.9792 7.3173 21.1824C7.52047 21.3856 7.79602 21.4997 8.08333 21.4997H11.3333V19.333H9.16667V6.33303H11.3333V4.16637H8.08333C7.79602 4.16637 7.52047 4.2805 7.3173 4.48367C7.11414 4.68683 7 4.96238 7 5.2497ZM22.4288 4.19887L13.7622 2.0322C13.6025 1.99238 13.4359 1.98945 13.2749 2.02364C13.1139 2.05784 12.9629 2.12825 12.8332 2.22954C12.7035 2.33082 12.5986 2.46032 12.5264 2.60821C12.4542 2.7561 12.4167 2.91848 12.4167 3.08303V22.583C12.4163 22.7477 12.4535 22.9103 12.5256 23.0584C12.5976 23.2065 12.7026 23.3362 12.8324 23.4376C12.9622 23.539 13.1134 23.6094 13.2745 23.6434C13.4357 23.6774 13.6025 23.6741 13.7622 23.6339L22.4288 21.4672C22.6633 21.4087 22.8715 21.2735 23.0203 21.0831C23.1691 20.8927 23.2499 20.658 23.25 20.4164V5.2497C23.2499 5.00805 23.1691 4.77336 23.0203 4.58295C22.8715 4.39254 22.6633 4.25735 22.4288 4.19887ZM17.8333 13.0367C17.8209 13.3156 17.7013 13.579 17.4995 13.772C17.2977 13.965 17.0292 14.0727 16.75 14.0727C16.4708 14.0727 16.2023 13.965 16.0005 13.772C15.7987 13.579 15.6791 13.3156 15.6667 13.0367V12.6283C15.6668 12.341 15.7811 12.0655 15.9844 11.8624C16.1876 11.6593 16.4632 11.5453 16.7505 11.5455C17.0379 11.5456 17.3134 11.6599 17.5164 11.8632C17.7195 12.0664 17.8335 12.342 17.8333 12.6294V13.0367Z" fill="white"/>
</svg>

