<svg width="20" height="20" viewBox="0 0 20 20" fill="none" xmlns="http://www.w3.org/2000/svg">
<path d="M0.616725 10.1641C-0.266676 10.668 -0.18459 12.0118 0.757443 12.4024L6.24156 14.6875V18.7227C6.24156 19.4297 6.81225 20 7.51975 20C7.89891 20 8.25853 19.832 8.50088 19.5391L10.9244 16.6367L15.7674 18.6524C16.5062 18.9609 17.3622 18.4766 17.4834 17.6875L19.9851 1.43764C20.0593 0.964986 19.8522 0.488427 19.4574 0.218898C19.0626 -0.0506315 18.5466 -0.0740688 18.1284 0.164211L0.616725 10.1641ZM2.65324 11.1602L16.002 3.53919L7.41812 13.1251L7.46503 13.1641L2.65324 11.1602ZM15.7518 16.6172L9.23965 13.9024L17.6085 4.5548L15.7518 16.6172Z" fill="white"/>
</svg>
