<svg width="12" height="12" viewBox="0 0 12 12" fill="none" xmlns="http://www.w3.org/2000/svg">
<g clip-path="url(#clip0_1575_3475)">
<path d="M6 6.75C6.89511 6.75 7.75355 6.39442 8.38649 5.76149C9.01942 5.12855 9.375 4.27011 9.375 3.375C9.375 2.47989 9.01942 1.62145 8.38649 0.988515C7.75355 0.355579 6.89511 0 6 0C5.10489 0 4.24645 0.355579 3.61351 0.988515C2.98058 1.62145 2.625 2.47989 2.625 3.375C2.625 4.27011 2.98058 5.12855 3.61351 5.76149C4.24645 6.39442 5.10489 6.75 6 6.75ZM3.78047 7.5C1.69219 7.5 0 9.19219 0 11.2805C0 11.6789 0.323438 12 0.719531 12H11.2805C11.6789 12 12 11.6766 12 11.2805C12 9.19219 10.3078 7.5 8.21953 7.5H3.78047Z" fill="#828295"/>
</g>
<defs>
<clipPath id="clip0_1575_3475">
<rect width="12" height="12" fill="white"/>
</clipPath>
</defs>
</svg>
