<svg width="20" height="20" viewBox="0 0 20 20" fill="none" xmlns="http://www.w3.org/2000/svg">
<path d="M10 1.6665C5.86417 1.6665 2.5 5.0315 2.5 9.1665C2.5 11.9398 4.01667 14.3598 6.26083 15.6582L4.53833 16.8065C4.38958 16.9057 4.27667 17.0501 4.21628 17.2184C4.1559 17.3867 4.15123 17.5699 4.20299 17.7411C4.25474 17.9122 4.36016 18.0621 4.50368 18.1688C4.6472 18.2754 4.82121 18.333 5 18.3332H15C15.1789 18.3332 15.353 18.2757 15.4966 18.1691C15.6403 18.0626 15.7459 17.9126 15.7977 17.7414C15.8496 17.5703 15.845 17.3869 15.7846 17.2186C15.7243 17.0502 15.6113 16.9057 15.4625 16.8065L13.74 15.6582C15.9833 14.3598 17.5 11.9398 17.5 9.1665C17.5 5.0315 14.1358 1.6665 10 1.6665ZM10 14.9998C6.78417 14.9998 4.16667 12.3823 4.16667 9.1665C4.16667 5.94984 6.78417 3.33317 10 3.33317C13.2158 3.33317 15.8333 5.94984 15.8333 9.1665C15.8333 12.3823 13.2158 14.9998 10 14.9998Z" fill="white"/>
<path d="M9.9987 5C7.7012 5 5.83203 6.86917 5.83203 9.16667C5.83203 11.4642 7.7012 13.3333 9.9987 13.3333C12.2962 13.3333 14.1654 11.4642 14.1654 9.16667C14.1654 6.86917 12.2962 5 9.9987 5ZM9.9987 11.6667C8.62036 11.6667 7.4987 10.545 7.4987 9.16667C7.4987 7.78833 8.62036 6.66667 9.9987 6.66667C11.377 6.66667 12.4987 7.78833 12.4987 9.16667C12.4987 10.545 11.377 11.6667 9.9987 11.6667Z" fill="white"/>
</svg>
