<svg width="38" height="38" viewBox="0 0 38 38" fill="none" xmlns="http://www.w3.org/2000/svg">
<path d="M35.625 33.3242L24.7297 22.2805C26.2141 20.2098 27.0973 17.6641 27.0973 14.918C27.0973 8.0082 21.5531 2.38242 14.7398 2.38242C7.91914 2.375 2.375 8.00078 2.375 14.9105C2.375 21.8203 7.91914 27.4461 14.7324 27.4461C17.6863 27.4461 20.3953 26.3922 22.5254 24.6332L33.3613 35.625L35.625 33.3242ZM14.7324 24.5516C9.49258 24.5516 5.225 20.2246 5.225 14.9105C5.225 9.59649 9.49258 5.26953 14.7324 5.26953C19.9723 5.26953 24.2398 9.59649 24.2398 14.9105C24.2398 20.2246 19.9797 24.5516 14.7324 24.5516Z" fill="#4C4CFF"/>
</svg>
