<?xml version="1.0" encoding="utf-8"?>
<!-- Generator: Adobe Illustrator 27.8.1, SVG Export Plug-In . SVG Version: 6.00 Build 0)  -->
<svg version="1.1" id="레이어_1" xmlns="http://www.w3.org/2000/svg" xmlns:xlink="http://www.w3.org/1999/xlink" x="0px"
	 y="0px" viewBox="0 0 160 160" style="enable-background:new 0 0 160 160;" xml:space="preserve">
<style type="text/css">
	.st0{fill:#1C1C66;}
	.st1{fill:#4C4CFF;}
	.st2{fill:#FFFFFF;}
	.st3{fill:#E3E399;}
</style>
<g>
	<g>
		<path class="st2" d="M48.31,90.71l-9.8,36.59h-8.32l6.61-24.7l-9.93,24.7h-5.9l2.98-24.13l-6.48,24.13H9.15l9.8-36.59h12.31
			c-0.22,2.2-0.54,4.79-0.95,7.78l-1.14,9.31l6.76-17.08H48.31z"/>
		<path class="st2" d="M66.86,107.84l-1.97,7.34c-0.72,2.7-1.39,4.67-2,5.93c-0.61,1.26-1.5,2.43-2.68,3.53
			c-1.18,1.09-2.54,1.9-4.07,2.42c-1.53,0.52-3.2,0.78-5.01,0.78c-2.02,0-3.67-0.22-4.95-0.67c-1.28-0.44-2.19-1.11-2.73-2.01
			c-0.54-0.9-0.8-1.98-0.79-3.25c0.01-1.27,0.36-3.18,1.04-5.73l2.06-7.68c0.75-2.79,1.63-4.96,2.65-6.53
			c1.02-1.57,2.44-2.82,4.27-3.77c1.82-0.95,3.95-1.42,6.39-1.42c2.05,0,3.73,0.31,5.03,0.92c1.31,0.61,2.23,1.4,2.76,2.38
			c0.54,0.98,0.81,1.99,0.83,3.03C67.71,104.14,67.43,105.72,66.86,107.84z M58.34,105.58c0.41-1.54,0.59-2.5,0.53-2.9
			c-0.06-0.4-0.36-0.6-0.9-0.6c-0.54,0-0.96,0.2-1.25,0.6c-0.29,0.4-0.64,1.37-1.05,2.9l-3.63,13.54c-0.38,1.42-0.54,2.34-0.47,2.77
			c0.07,0.43,0.36,0.64,0.89,0.64c0.54,0,0.95-0.2,1.23-0.59c0.28-0.39,0.59-1.24,0.94-2.53L58.34,105.58z"/>
		<path class="st2" d="M103.86,107.84l-1.97,7.34c-0.72,2.7-1.39,4.67-2,5.93c-0.61,1.26-1.5,2.43-2.68,3.53
			c-1.18,1.09-2.54,1.9-4.07,2.42c-1.53,0.52-3.2,0.78-5.01,0.78c-2.02,0-3.67-0.22-4.95-0.67c-1.28-0.44-2.19-1.11-2.73-2.01
			c-0.54-0.9-0.8-1.98-0.79-3.25c0.01-1.27,0.36-3.18,1.04-5.73l2.06-7.68c0.75-2.79,1.63-4.96,2.65-6.53
			c1.02-1.57,2.44-2.82,4.27-3.77c1.82-0.95,3.95-1.42,6.39-1.42c2.05,0,3.73,0.31,5.03,0.92c1.31,0.61,2.23,1.4,2.76,2.38
			c0.54,0.98,0.81,1.99,0.83,3.03C104.71,104.14,104.43,105.72,103.86,107.84z M95.34,105.58c0.41-1.54,0.59-2.5,0.53-2.9
			c-0.06-0.4-0.36-0.6-0.9-0.6s-0.96,0.2-1.25,0.6c-0.29,0.4-0.64,1.37-1.05,2.9l-3.63,13.54c-0.38,1.42-0.54,2.34-0.47,2.77
			c0.07,0.43,0.36,0.64,0.89,0.64c0.54,0,0.95-0.2,1.23-0.59c0.28-0.39,0.59-1.24,0.94-2.53L95.34,105.58z"/>
		<path class="st2" d="M82.28,93.31l-1.27,4.72h2.46l-1.27,4.75h-2.46l-4.3,16.04c-0.53,1.97-0.72,3.07-0.58,3.3
			c0.14,0.23,0.96,0.34,2.45,0.34l-1.3,4.84h-3.68c-2.08,0-3.54-0.09-4.38-0.26c-0.84-0.17-1.52-0.57-2.03-1.2
			c-0.51-0.63-0.74-1.34-0.69-2.15c0.05-0.81,0.48-2.7,1.27-5.68l4.08-15.23h-1.97l1.27-4.75h1.97l1.27-4.72H82.28z"/>
		<path class="st2" d="M117.75,97.31l-1.42,3.94c2.08-2.82,4.4-4.32,6.96-4.49l-2.83,10.55c-1.67,0-2.96,0.23-3.87,0.68
			c-0.9,0.45-1.56,1.08-1.95,1.89c-0.4,0.81-0.98,2.66-1.76,5.57l-3.17,11.84h-9.13l8.04-29.99H117.75z"/>
		<path class="st2" d="M141.68,106.89h-8.09l0.44-1.63c0.37-1.39,0.53-2.26,0.47-2.63c-0.06-0.37-0.41-0.55-1.04-0.55
			c-0.51,0-0.94,0.17-1.29,0.51c-0.35,0.34-0.61,0.85-0.79,1.53c-0.25,0.92-0.36,1.59-0.35,2.02c0.01,0.43,0.27,0.9,0.77,1.41
			c0.5,0.51,1.62,1.26,3.34,2.24c2.3,1.3,3.72,2.52,4.24,3.66c0.52,1.15,0.49,2.81-0.1,4.99c-0.65,2.44-1.46,4.28-2.43,5.53
			c-0.97,1.24-2.28,2.2-3.94,2.87c-1.66,0.67-3.54,1.01-5.64,1.01c-2.32,0-4.21-0.36-5.66-1.08c-1.46-0.72-2.33-1.7-2.61-2.94
			c-0.29-1.24-0.09-3.1,0.58-5.6l0.39-1.45h8.09l-0.51,1.9c-0.43,1.61-0.61,2.66-0.54,3.14c0.07,0.48,0.41,0.72,1.02,0.72
			c0.65,0,1.14-0.16,1.49-0.49c0.34-0.32,0.65-1.01,0.93-2.04c0.38-1.43,0.46-2.33,0.22-2.69c-0.25-0.36-1.73-1.43-4.45-3.21
			c-2.28-1.51-3.55-2.87-3.8-4.1c-0.26-1.23-0.16-2.69,0.29-4.37c0.64-2.4,1.43-4.16,2.37-5.3c0.94-1.14,2.25-2.01,3.93-2.63
			c1.68-0.62,3.52-0.93,5.53-0.93c1.99,0,3.61,0.25,4.87,0.76c1.26,0.5,2.15,1.17,2.67,2c0.52,0.83,0.77,1.6,0.74,2.3
			c-0.03,0.71-0.25,1.82-0.65,3.32L141.68,106.89z"/>
	</g>
	<g>
		<path class="st2" d="M46.6,36.62L32.9,87.75H19.6l13.7-51.13H46.6z"/>
		<path class="st2" d="M79.49,36.62l-13.7,51.13H54.14l-0.69-23.25l-6.23,23.25H36.1l13.7-51.13h11.12l1.28,23.02l6.17-23.02H79.49z
			"/>
		<path class="st2" d="M112.38,36.62l-13.7,51.13H87.03l-0.69-23.25l-6.23,23.25H68.99l13.7-51.13h11.12l1.28,23.02l6.17-23.02
			H112.38z"/>
		<path class="st2" d="M137.95,66.56c-1.38,5.14-2.47,8.78-3.29,10.91c-0.82,2.14-2.1,4.09-3.84,5.86
			c-1.75,1.77-3.83,3.13-6.26,4.07c-2.42,0.95-5.08,1.42-7.96,1.42c-2.74,0-5.08-0.45-7.01-1.34c-1.94-0.89-3.33-2.24-4.18-4.03
			c-0.85-1.79-1.11-3.74-0.8-5.84c0.31-2.11,1.17-5.79,2.58-11.05l2.34-8.75c1.38-5.14,2.47-8.77,3.29-10.91
			c0.81-2.14,2.1-4.09,3.84-5.86c1.75-1.77,3.83-3.13,6.26-4.07c2.42-0.95,5.08-1.42,7.96-1.42c2.74,0,5.08,0.45,7.02,1.34
			c1.94,0.9,3.33,2.24,4.18,4.03c0.85,1.79,1.11,3.74,0.8,5.84c-0.31,2.11-1.17,5.79-2.58,11.05L137.95,66.56z M129.15,49.76
			c0.64-2.38,0.91-3.9,0.83-4.56c-0.09-0.66-0.54-0.99-1.36-0.99c-0.69,0-1.3,0.27-1.81,0.81c-0.51,0.54-1.12,2.12-1.83,4.75
			l-6.4,23.88c-0.8,2.97-1.17,4.8-1.11,5.5c0.06,0.69,0.53,1.04,1.41,1.04c0.9,0,1.59-0.4,2.06-1.2c0.47-0.8,1.1-2.71,1.91-5.72
			L129.15,49.76z"/>
	</g>
</g>
</svg>
