<svg width="90" height="61" viewBox="0 0 90 61" fill="none" xmlns="http://www.w3.org/2000/svg">
<g clip-path="url(#clip0_1439_4209)">
<path d="M24.8708 37.3298L18.6444 60.6541H13.3634L17.5595 44.907L11.2531 60.6541H7.50615L9.39705 45.2672L5.28302 60.6541H0L6.22642 37.3298H14.0443C13.9028 38.7316 13.6998 40.3846 13.4372 42.2886L12.7112 48.2211L17.0078 37.3298H24.8708Z" fill="white"/>
<path d="M36.6525 48.2499L35.4035 52.9329C34.9442 54.6517 34.5217 55.9135 34.1361 56.7143C33.7506 57.517 33.1804 58.2663 32.4298 58.9621C31.6792 59.6578 30.8178 60.1724 29.8437 60.5039C28.8695 60.8353 27.8092 61.002 26.6607 61.002C25.3789 61.002 24.3309 60.86 23.5168 60.5759C22.7026 60.2918 22.1242 59.8657 21.7838 59.2935C21.4433 58.7212 21.2772 58.0296 21.2834 57.2186C21.2895 56.4075 21.509 55.1889 21.9417 53.5669L23.2501 48.6678C23.7239 46.8913 24.2858 45.504 24.936 44.5035C25.584 43.5052 26.4885 42.7024 27.6451 42.0972C28.8018 41.492 30.1554 41.1895 31.7058 41.1895C33.0061 41.1895 34.0725 41.385 34.9011 41.7741C35.7296 42.1631 36.3141 42.6695 36.6546 43.2932C36.995 43.9169 37.1693 44.5612 37.1796 45.224C37.1898 45.8868 37.0135 46.8955 36.6525 48.2499ZM31.2383 46.809C31.5008 45.8292 31.6115 45.2117 31.5746 44.9585C31.5377 44.7032 31.3469 44.5777 31.0024 44.5777C30.6579 44.5777 30.3933 44.7053 30.2108 44.9585C30.0282 45.2137 29.8067 45.8292 29.5442 46.809L27.2411 55.438C26.9991 56.3417 26.9007 56.9283 26.9417 57.2021C26.9827 57.4759 27.1714 57.6117 27.5077 57.6117C27.8441 57.6117 28.1127 57.4862 28.2891 57.2371C28.4655 56.988 28.6644 56.4487 28.8839 55.6233L31.2383 46.807V46.809Z" fill="white"/>
<path d="M46.4497 38.9871L45.6457 41.9986H47.2105L46.4025 45.0245H44.8377L42.1059 55.2529C41.7696 56.5106 41.6486 57.2125 41.7388 57.3566C41.8291 57.5007 42.3479 57.5728 43.2954 57.5728L42.473 60.6563H40.133C38.8123 60.6563 37.8853 60.6007 37.35 60.4917C36.8147 60.3805 36.3861 60.1273 36.062 59.728C35.738 59.3286 35.5924 58.8737 35.6232 58.3591C35.6539 57.8445 35.9246 56.6382 36.4333 54.7362L39.0255 45.0265H37.7766L38.5846 42.0006H39.8336L40.6375 38.9891H46.4497V38.9871Z" fill="white"/>
<path d="M58.8736 51.4344H51.3675L50.2641 55.5698C50.0324 56.4343 49.9462 56.9922 50.0037 57.2412C50.0611 57.4903 50.2682 57.6159 50.621 57.6159C51.0619 57.6159 51.4003 57.4512 51.6361 57.1198C51.872 56.7884 52.1181 56.1482 52.3724 55.1972L53.0451 52.6756H58.5434L58.1661 54.0877C57.8502 55.2693 57.5344 56.177 57.2165 56.811C56.8986 57.445 56.3716 58.1223 55.6333 58.8427C54.895 59.5632 54.0603 60.1025 53.1271 60.4627C52.194 60.8229 51.0947 61.002 49.8314 61.002C48.568 61.002 47.5734 60.825 46.7305 60.4689C45.8876 60.1128 45.2887 59.627 44.9319 59.0074C44.575 58.3878 44.3966 57.7065 44.3945 56.9613C44.3925 56.2182 44.5812 55.1334 44.9606 53.7131L46.4495 48.1388C46.8945 46.4673 47.4729 45.1499 48.1804 44.1845C48.888 43.2191 49.8211 42.4801 50.984 41.9655C52.1448 41.4509 53.3896 41.1936 54.7206 41.1936C56.347 41.1936 57.6062 41.5044 58.4983 42.122C59.3904 42.7416 59.9134 43.5629 60.0652 44.5859C60.2169 45.609 60.0467 47.0478 59.5525 48.9004L58.8757 51.4364L58.8736 51.4344ZM53.8921 48.322L54.2653 46.9243C54.5299 45.9342 54.6468 45.2961 54.6201 45.0079C54.5914 44.7197 54.4151 44.5756 54.089 44.5756C53.687 44.5756 53.406 44.6971 53.244 44.942C53.082 45.187 52.8585 45.8478 52.5713 46.9223L52.1981 48.3199H53.8921V48.322Z" fill="white"/>
<path d="M68.9746 41.5375L68.0743 44.0508C69.3971 42.2497 70.8717 41.2966 72.498 41.1917L70.7015 47.9187C69.6391 47.9187 68.8208 48.0627 68.2466 48.3509C67.6723 48.6391 67.2581 49.0405 67.0079 49.5531C66.7556 50.0677 66.3824 51.2513 65.8881 53.1039L63.8721 60.6522H58.0723L63.1769 41.5354H68.9767L68.9746 41.5375Z" fill="white"/>
<path d="M84.1785 47.6449H79.0411L79.318 46.6074C79.5538 45.7243 79.6523 45.1645 79.6154 44.9298C79.5785 44.6951 79.359 44.5778 78.957 44.5778C78.631 44.5778 78.3582 44.6848 78.1388 44.901C77.9173 45.1171 77.7511 45.4403 77.6342 45.8726C77.4784 46.4592 77.4045 46.8874 77.4127 47.1611C77.4209 47.4349 77.585 47.7355 77.9049 48.0607C78.2249 48.388 78.9324 48.8635 80.0296 49.4872C81.494 50.3126 82.3902 51.0907 82.7224 51.8215C83.0526 52.5522 83.0342 53.6123 82.6609 55.0059C82.2446 56.5621 81.7319 57.7354 81.1166 58.5279C80.5034 59.3204 79.6687 59.9297 78.6125 60.3578C77.5563 60.786 76.3627 61.0001 75.0317 61.0001C73.5571 61.0001 72.3594 60.7695 71.4345 60.3084C70.5095 59.8474 69.9558 59.2236 69.7733 58.4353C69.5908 57.6469 69.7138 56.4571 70.1383 54.8618L70.3844 53.9396H75.5239L75.1999 55.15C74.9251 56.1771 74.8123 56.8461 74.8594 57.1528C74.9066 57.4596 75.1219 57.6139 75.5054 57.6139C75.9177 57.6139 76.2315 57.511 76.4488 57.3031C76.6662 57.0973 76.8652 56.6629 77.0415 56.0001C77.2856 55.0882 77.3328 54.516 77.183 54.2854C77.0251 54.0549 76.0817 53.3735 74.357 52.2393C72.9111 51.2801 72.1051 50.4073 71.941 49.6251C71.777 48.8429 71.8385 47.9125 72.1256 46.838C72.5337 45.3106 73.0342 44.1846 73.631 43.4601C74.2257 42.7355 75.0584 42.1756 76.1248 41.7824C77.1913 41.3893 78.3623 41.1917 79.6338 41.1917C80.9054 41.1917 81.9287 41.3522 82.7265 41.6754C83.5264 41.9965 84.0924 42.4226 84.4246 42.9496C84.7569 43.4786 84.9127 43.9685 84.8943 44.4193C84.8738 44.8701 84.7364 45.5761 84.48 46.5374L84.1847 47.6469L84.1785 47.6449Z" fill="white"/>
<path d="M24.877 0.72876L15.6214 35.3992H6.63867L15.8942 0.72876H24.877Z" fill="white"/>
<path d="M47.0962 0.72876L37.8406 35.3992H29.9674L29.5018 19.6376L25.2935 35.3992H17.7832L27.0408 0.72876H34.551L35.4186 16.34L39.5859 0.72876H47.0962Z" fill="white"/>
<path d="M69.3169 0.72876L60.0613 35.3992H52.1881L51.7225 19.6376L47.5142 35.3992H40.0039L49.2594 0.72876H56.7697L57.6372 16.34L61.8046 0.72876H69.3148H69.3169Z" fill="white"/>
<path d="M86.5856 21.0291C85.6565 24.512 84.9141 26.9801 84.3645 28.4271C83.8128 29.8763 82.9473 31.1999 81.7681 32.3999C80.5868 33.6 79.1778 34.5202 77.5413 35.1624C75.9047 35.8046 74.1122 36.1257 72.1639 36.1257C70.2156 36.1257 68.7349 35.8231 67.4244 35.2159C66.1139 34.6087 65.1725 33.6988 64.6003 32.4864C64.0281 31.274 63.8477 29.9525 64.0568 28.5239C64.2681 27.0974 64.8485 24.5984 65.8021 21.0291L67.3854 15.0966C68.3165 11.6138 69.0548 9.14774 69.6065 7.69859C70.1561 6.24944 71.0216 4.92586 72.2029 3.72579C73.3842 2.52571 74.7911 1.60559 76.4297 0.963353C78.0663 0.321118 79.8587 0 81.8071 0C83.7554 0 85.2361 0.302592 86.5466 0.909833C87.8571 1.51708 88.7984 2.42691 89.3706 3.63933C89.9428 4.85382 90.1233 6.17328 89.9141 7.60184C89.7029 9.03041 89.1225 11.5273 88.1688 15.0966L86.5856 21.0291ZM80.6442 9.63559C81.0749 8.02177 81.2615 6.99048 81.2041 6.54174C81.1467 6.093 80.8411 5.86657 80.2853 5.86657C79.8157 5.86657 79.4075 6.04772 79.0609 6.41206C78.7143 6.77641 78.3042 7.85092 77.8263 9.63559L73.5052 25.8253C72.9678 27.8384 72.7176 29.0797 72.7566 29.5511C72.7935 30.0224 73.1114 30.2571 73.7102 30.2571C74.3091 30.2571 74.7849 29.9854 75.1007 29.444C75.4166 28.9026 75.8472 27.6099 76.3907 25.568L80.6442 9.63559Z" fill="white"/>
</g>
<defs>
<clipPath id="clip0_1439_4209">
<rect width="90" height="61" fill="white"/>
</clipPath>
</defs>
</svg>
