<svg width="12" height="12" viewBox="0 0 12 12" fill="none" xmlns="http://www.w3.org/2000/svg">
<g clip-path="url(#clip0_1193_332)">
<path d="M11.8833 4.8249H11.4V4.8H6V7.2H9.3909C8.8962 8.5971 7.5669 9.6 6 9.6C4.0119 9.6 2.4 7.9881 2.4 6C2.4 4.0119 4.0119 2.4 6 2.4C6.9177 2.4 7.7526 2.7462 8.3883 3.3117L10.0854 1.6146C9.0138 0.6159 7.5804 0 6 0C2.6865 0 0 2.6865 0 6C0 9.3135 2.6865 12 6 12C9.3135 12 12 9.3135 12 6C12 5.5977 11.9586 5.205 11.8833 4.8249Z" fill="#FFC107"/>
<path d="M0.691406 3.2073L2.66271 4.653C3.19611 3.3324 4.48791 2.4 5.99961 2.4C6.91731 2.4 7.75221 2.7462 8.38791 3.3117L10.085 1.6146C9.01341 0.6159 7.58001 0 5.99961 0C3.69501 0 1.69641 1.3011 0.691406 3.2073Z" fill="#FF3D00"/>
<path d="M5.9997 12.0001C7.5495 12.0001 8.9577 11.407 10.0224 10.4425L8.1654 8.87111C7.563 9.32741 6.8142 9.60011 5.9997 9.60011C4.4391 9.60011 3.114 8.60501 2.6148 7.21631L0.658203 8.72381C1.6512 10.6669 3.6678 12.0001 5.9997 12.0001Z" fill="#4CAF50"/>
<path d="M11.8833 4.82495H11.4V4.80005H6V7.20005H9.3909C9.1533 7.87115 8.7216 8.44985 8.1648 8.87135L10.0227 10.4421C9.8913 10.5615 12 9.00005 12 6.00005C12 5.59775 11.9586 5.20505 11.8833 4.82495Z" fill="#1976D2"/>
</g>
<defs>
<clipPath id="clip0_1193_332">
<rect width="12" height="12" fill="white"/>
</clipPath>
</defs>
</svg>
