<svg width="13" height="13" viewBox="0 0 13 13" fill="none" xmlns="http://www.w3.org/2000/svg">
<path d="M10.7573 2.06295C11.0332 1.73092 10.9892 1.23775 10.6572 0.961872C10.3252 0.685993 9.83199 0.729939 9.55611 1.06197L6.25045 5.02925L2.94478 1.06197C2.6689 0.729939 2.17574 0.685993 1.84371 0.961872C1.51168 1.23775 1.46773 1.73092 1.74361 2.06295L5.23238 6.24996L1.74361 10.437C1.46773 10.769 1.51168 11.2622 1.84371 11.538C2.17574 11.8139 2.6689 11.77 2.94478 11.4379L6.25045 7.47066L9.55611 11.4379C9.83199 11.77 10.3252 11.8139 10.6572 11.538C10.9892 11.2622 11.0332 10.769 10.7573 10.437L7.26851 6.24996L10.7573 2.06295Z" fill="#4C4CFF"/>
</svg>
